<svg width="46" height="45" viewBox="0 0 46 45" fill="none" xmlns="http://www.w3.org/2000/svg">
<g clip-path="url(#clip0_229_1330)">
<path d="M23.9375 39.375H11.75C10.7554 39.375 9.80161 38.9799 9.09835 38.2766C8.39509 37.5734 8 36.6196 8 35.625V13.125C8 12.1304 8.39509 11.1766 9.09835 10.4733C9.80161 9.77009 10.7554 9.375 11.75 9.375H34.25C35.2446 9.375 36.1984 9.77009 36.9016 10.4733C37.6049 11.1766 38 12.1304 38 13.125V22.5" stroke="#844AFF" stroke-width="3" stroke-linecap="round" stroke-linejoin="round"/>
<path d="M30.5 5.625V13.125" stroke="#844AFF" stroke-width="3" stroke-linecap="round" stroke-linejoin="round"/>
<path d="M15.5 5.625V13.125" stroke="#844AFF" stroke-width="3" stroke-linecap="round" stroke-linejoin="round"/>
<path d="M8 20.625H38" stroke="#844AFF" stroke-width="3" stroke-linecap="round" stroke-linejoin="round"/>
<path d="M30.5 35.625H41.75" stroke="#844AFF" stroke-width="3" stroke-linecap="round" stroke-linejoin="round"/>
<path d="M36.125 30V41.25" stroke="#844AFF" stroke-width="3" stroke-linecap="round" stroke-linejoin="round"/>
</g>
<defs>
<clipPath id="clip0_229_1330">
<rect width="45" height="45" fill="white" transform="translate(0.5)"/>
</clipPath>
</defs>
</svg>
