<svg width="45" height="44" viewBox="0 0 45 44" fill="none" xmlns="http://www.w3.org/2000/svg">
<path d="M35.1254 15.3308L25.126 7.55332C24.2485 6.87064 23.1684 6.5 22.0566 6.5C20.9448 6.5 19.8648 6.87064 18.9873 7.55332L8.98602 15.3308C8.38497 15.7982 7.89869 16.3968 7.56431 17.0808C7.22992 17.7649 7.05628 18.5163 7.05664 19.2777V32.7777C7.05664 33.7723 7.45173 34.7261 8.15499 35.4293C8.85825 36.1326 9.81208 36.5277 10.8066 36.5277H33.3066C34.3012 36.5277 35.255 36.1326 35.9583 35.4293C36.6616 34.7261 37.0566 33.7723 37.0566 32.7777V19.2777C37.0566 17.7346 36.3441 16.2777 35.1254 15.3308Z" stroke="#ABABB4" stroke-width="3" stroke-linecap="round" stroke-linejoin="round"/>
<path d="M29.5 27.125C25.3562 29.6244 18.64 29.6244 14.5 27.125" stroke="#ABABB4" stroke-width="3" stroke-linecap="round" stroke-linejoin="round"/>
</svg>
