<svg width="26" height="26" viewBox="0 0 26 26" fill="none" xmlns="http://www.w3.org/2000/svg">
<g clip-path="url(#clip0_1569_28882)">
<path d="M1.91345 17.5922C1.31039 16.1363 1 14.5759 1 13C1 9.8174 2.26428 6.76515 4.51472 4.51472C6.76515 2.26428 9.8174 1 13 1C16.1826 1 19.2348 2.26428 21.4853 4.51472C23.7357 6.76516 25 9.8174 25 13C25 14.5759 24.6896 16.1363 24.0866 17.5922C23.4835 19.0481 22.5996 20.371 21.4853 21.4853C20.371 22.5996 19.0481 23.4835 17.5922 24.0866C16.1363 24.6896 14.5759 25 13 25C11.4241 25 9.8637 24.6896 8.4078 24.0866C6.95189 23.4835 5.62902 22.5996 4.51472 21.4853C3.40042 20.371 2.5165 19.0481 1.91345 17.5922Z" stroke="#93939D" stroke-width="2" stroke-linecap="round" stroke-linejoin="round"/>
<path d="M13 9.5957H13.0125" stroke="#93939D" stroke-width="2" stroke-linecap="round" stroke-linejoin="round"/>
<path d="M11.7533 13.4644H12.9985V18.6231H14.2437" stroke="#93939D" stroke-width="2" stroke-linecap="round" stroke-linejoin="round"/>
</g>
<defs>
<clipPath id="clip0_1569_28882">
<rect width="26" height="26" fill="white"/>
</clipPath>
</defs>
</svg>
