<svg width="170" height="36" viewBox="0 0 170 36" fill="none" xmlns="http://www.w3.org/2000/svg">
<rect x="85.6471" y="3.64706" width="12.7059" height="12.7059" rx="2.35294" fill="#06E738" fill-opacity="0.2" stroke="#06E738" stroke-width="1.29412"/>
<path d="M111.936 12.31H111.176V5.96H111.936V12.31ZM110.076 10.32L109.646 10.93C109.179 10.73 108.746 10.4367 108.346 10.05C107.946 9.65667 107.659 9.23667 107.486 8.79C107.359 9.24333 107.079 9.7 106.646 10.16C106.219 10.62 105.759 10.9733 105.266 11.22L104.806 10.62C105.419 10.3467 105.953 9.91333 106.406 9.32C106.859 8.72667 107.086 8.09667 107.086 7.43V6.46H107.856V7.41C107.856 8.09 108.079 8.69333 108.526 9.22C108.979 9.74667 109.496 10.1133 110.076 10.32ZM112.126 14.43H106.296V11.74H107.056V13.8H112.126V14.43ZM120.658 13.12C120.658 13.6133 120.392 14.0033 119.858 14.29C119.332 14.5767 118.588 14.72 117.628 14.72C116.668 14.72 115.922 14.5767 115.388 14.29C114.862 14.0033 114.598 13.6133 114.598 13.12C114.598 12.6133 114.862 12.2167 115.388 11.93C115.922 11.6433 116.668 11.5 117.628 11.5C118.588 11.5 119.332 11.6433 119.858 11.93C120.392 12.2167 120.658 12.6133 120.658 13.12ZM113.668 8.25V7.63H118.378V8.25H116.448C116.468 8.76333 116.688 9.23 117.108 9.65C117.528 10.07 118.005 10.3433 118.538 10.47L118.148 11.07C117.755 10.95 117.355 10.7233 116.948 10.39C116.548 10.0567 116.248 9.69667 116.048 9.31C115.908 9.71 115.628 10.1033 115.208 10.49C114.795 10.87 114.342 11.1467 113.848 11.32L113.438 10.74C114.025 10.5667 114.538 10.2433 114.978 9.77C115.418 9.29 115.642 8.78333 115.648 8.25H113.668ZM119.878 13.12C119.878 12.8067 119.678 12.5633 119.278 12.39C118.878 12.21 118.328 12.12 117.628 12.12C116.928 12.12 116.378 12.21 115.978 12.39C115.578 12.5633 115.378 12.8067 115.378 13.12C115.378 13.4267 115.578 13.6667 115.978 13.84C116.378 14.0133 116.928 14.1 117.628 14.1C118.335 14.1 118.885 14.0133 119.278 13.84C119.678 13.6667 119.878 13.4267 119.878 13.12ZM120.588 5.96V11.48H119.828V9.41H118.078V8.77H119.828V5.96H120.588ZM114.818 6.81V6.15H117.278V6.81H114.818ZM132.618 10.65H124.728V10.01H130.588C130.748 9.34333 130.828 8.41333 130.828 7.22H125.718V6.59H131.598C131.598 8.01 131.508 9.15 131.328 10.01H132.618V10.65ZM131.848 14.38H125.728V11.63H126.488V13.75H131.848V14.38ZM140.28 9.98H134.35V6.45H140.28V9.98ZM139.52 9.35V7.08H135.12V9.35H139.52ZM137.69 14.71H136.93V11.73H133.38V11.09H141.27V11.73H137.69V14.71ZM152.709 9.2H151.379V12.3H150.619V5.96H151.379V8.56H152.709V9.2ZM151.719 14.4H145.819V11.71H146.579V13.77H151.719V14.4ZM149.059 10.98H144.929V6.55H145.689V8.05H148.289V6.55H149.059V10.98ZM148.289 10.36V8.67H145.689V10.36H148.289ZM160.462 13.06C160.462 13.5733 160.202 13.9767 159.682 14.27C159.162 14.57 158.428 14.72 157.482 14.72C156.542 14.72 155.812 14.57 155.292 14.27C154.772 13.9767 154.512 13.5733 154.512 13.06C154.512 12.5333 154.768 12.1233 155.282 11.83C155.802 11.5367 156.535 11.39 157.482 11.39C158.428 11.39 159.162 11.5367 159.682 11.83C160.202 12.1233 160.462 12.5333 160.462 13.06ZM158.102 9.94V9.29H159.692V7.77H158.102V7.12H159.692V5.96H160.452V11.37H159.692V9.94H158.102ZM159.682 13.06C159.682 12.7333 159.488 12.48 159.102 12.3C158.715 12.12 158.175 12.03 157.482 12.03C156.802 12.03 156.268 12.12 155.882 12.3C155.495 12.48 155.302 12.7333 155.302 13.06C155.302 13.38 155.495 13.63 155.882 13.81C156.268 13.9833 156.802 14.07 157.482 14.07C158.175 14.07 158.715 13.9833 159.102 13.81C159.488 13.63 159.682 13.38 159.682 13.06ZM155.632 6.49C156.265 6.49 156.795 6.68333 157.222 7.07C157.655 7.45667 157.872 7.96 157.872 8.58C157.872 9.20667 157.655 9.71 157.222 10.09C156.795 10.47 156.265 10.66 155.632 10.66C155.005 10.66 154.472 10.47 154.032 10.09C153.598 9.71 153.382 9.21 153.382 8.59C153.382 7.97 153.598 7.46667 154.032 7.08C154.472 6.68667 155.005 6.49 155.632 6.49ZM155.632 7.14C155.198 7.14 154.842 7.27333 154.562 7.54C154.282 7.8 154.142 8.14667 154.142 8.58C154.142 9.02 154.282 9.37333 154.562 9.64C154.842 9.90667 155.198 10.04 155.632 10.04C156.078 10.04 156.435 9.91 156.702 9.65C156.975 9.38333 157.112 9.03 157.112 8.59C157.112 8.15667 156.975 7.80667 156.702 7.54C156.435 7.27333 156.078 7.14 155.632 7.14Z" fill="#ABABB4"/>
<rect x="85.6471" y="22.6471" width="12.7059" height="12.7059" rx="2.35294" fill="#0027F4" fill-opacity="0.2" stroke="#0027F4" stroke-width="1.29412"/>
<path d="M111.61 31.31H110.85V24.96H111.61V31.31ZM109.75 29.32L109.32 29.93C108.853 29.73 108.42 29.4367 108.02 29.05C107.62 28.6567 107.333 28.2367 107.16 27.79C107.033 28.2433 106.753 28.7 106.32 29.16C105.893 29.62 105.433 29.9733 104.94 30.22L104.48 29.62C105.093 29.3467 105.627 28.9133 106.08 28.32C106.533 27.7267 106.76 27.0967 106.76 26.43V25.46H107.53V26.41C107.53 27.09 107.753 27.6933 108.2 28.22C108.653 28.7467 109.17 29.1133 109.75 29.32ZM111.8 33.43H105.97V30.74H106.73V32.8H111.8V33.43ZM120.332 32.12C120.332 32.6133 120.066 33.0033 119.532 33.29C119.006 33.5767 118.262 33.72 117.302 33.72C116.342 33.72 115.596 33.5767 115.062 33.29C114.536 33.0033 114.272 32.6133 114.272 32.12C114.272 31.6133 114.536 31.2167 115.062 30.93C115.596 30.6433 116.342 30.5 117.302 30.5C118.262 30.5 119.006 30.6433 119.532 30.93C120.066 31.2167 120.332 31.6133 120.332 32.12ZM113.342 27.25V26.63H118.052V27.25H116.122C116.142 27.7633 116.362 28.23 116.782 28.65C117.202 29.07 117.679 29.3433 118.212 29.47L117.822 30.07C117.429 29.95 117.029 29.7233 116.622 29.39C116.222 29.0567 115.922 28.6967 115.722 28.31C115.582 28.71 115.302 29.1033 114.882 29.49C114.469 29.87 114.016 30.1467 113.522 30.32L113.112 29.74C113.699 29.5667 114.212 29.2433 114.652 28.77C115.092 28.29 115.316 27.7833 115.322 27.25H113.342ZM119.552 32.12C119.552 31.8067 119.352 31.5633 118.952 31.39C118.552 31.21 118.002 31.12 117.302 31.12C116.602 31.12 116.052 31.21 115.652 31.39C115.252 31.5633 115.052 31.8067 115.052 32.12C115.052 32.4267 115.252 32.6667 115.652 32.84C116.052 33.0133 116.602 33.1 117.302 33.1C118.009 33.1 118.559 33.0133 118.952 32.84C119.352 32.6667 119.552 32.4267 119.552 32.12ZM120.262 24.96V30.48H119.502V28.41H117.752V27.77H119.502V24.96H120.262ZM114.492 25.81V25.15H116.952V25.81H114.492ZM132.291 29.65H124.401V29.01H130.261C130.421 28.3433 130.501 27.4133 130.501 26.22H125.391V25.59H131.271C131.271 27.01 131.181 28.15 131.001 29.01H132.291V29.65ZM131.521 33.38H125.401V30.63H126.161V32.75H131.521V33.38ZM139.954 28.98H134.024V25.45H139.954V28.98ZM139.194 28.35V26.08H134.794V28.35H139.194ZM137.364 33.71H136.604V30.73H133.054V30.09H140.944V30.73H137.364V33.71ZM151.453 33.7H150.693V24.96H151.453V33.7ZM148.943 31.45H144.813V25.86H148.943V31.45ZM148.183 30.82V26.49H145.583V30.82H148.183ZM161.035 28.2H159.705V31.3H158.945V24.96H159.705V27.56H161.035V28.2ZM160.045 33.4H154.145V30.71H154.905V32.77H160.045V33.4ZM157.385 29.98H153.255V25.55H154.015V27.05H156.615V25.55H157.385V29.98ZM156.615 29.36V27.67H154.015V29.36H156.615ZM168.788 32.06C168.788 32.5733 168.528 32.9767 168.008 33.27C167.488 33.57 166.754 33.72 165.808 33.72C164.868 33.72 164.138 33.57 163.618 33.27C163.098 32.9767 162.838 32.5733 162.838 32.06C162.838 31.5333 163.094 31.1233 163.608 30.83C164.128 30.5367 164.861 30.39 165.808 30.39C166.754 30.39 167.488 30.5367 168.008 30.83C168.528 31.1233 168.788 31.5333 168.788 32.06ZM166.428 28.94V28.29H168.018V26.77H166.428V26.12H168.018V24.96H168.778V30.37H168.018V28.94H166.428ZM168.008 32.06C168.008 31.7333 167.814 31.48 167.428 31.3C167.041 31.12 166.501 31.03 165.808 31.03C165.128 31.03 164.594 31.12 164.208 31.3C163.821 31.48 163.628 31.7333 163.628 32.06C163.628 32.38 163.821 32.63 164.208 32.81C164.594 32.9833 165.128 33.07 165.808 33.07C166.501 33.07 167.041 32.9833 167.428 32.81C167.814 32.63 168.008 32.38 168.008 32.06ZM163.958 25.49C164.591 25.49 165.121 25.6833 165.548 26.07C165.981 26.4567 166.198 26.96 166.198 27.58C166.198 28.2067 165.981 28.71 165.548 29.09C165.121 29.47 164.591 29.66 163.958 29.66C163.331 29.66 162.798 29.47 162.358 29.09C161.924 28.71 161.708 28.21 161.708 27.59C161.708 26.97 161.924 26.4667 162.358 26.08C162.798 25.6867 163.331 25.49 163.958 25.49ZM163.958 26.14C163.524 26.14 163.168 26.2733 162.888 26.54C162.608 26.8 162.468 27.1467 162.468 27.58C162.468 28.02 162.608 28.3733 162.888 28.64C163.168 28.9067 163.524 29.04 163.958 29.04C164.404 29.04 164.761 28.91 165.028 28.65C165.301 28.3833 165.438 28.03 165.438 27.59C165.438 27.1567 165.301 26.8067 165.028 26.54C164.761 26.2733 164.404 26.14 163.958 26.14Z" fill="#ABABB4"/>
<path d="M26.4757 14.64H20.6557V12.44H25.3857V11.56H20.6257V10.92H26.1457V13.03H21.4157V14H26.4757V14.64ZM19.5557 7.14V6.5H24.2157V7.14H22.2457L22.2557 7.4C22.2823 7.92667 22.5057 8.40667 22.9257 8.84C23.3457 9.27333 23.8257 9.58 24.3657 9.76L23.9457 10.35C23.5057 10.17 23.089 9.91 22.6957 9.57C22.3023 9.23 22.019 8.87 21.8457 8.49C21.7323 8.89 21.4657 9.29333 21.0457 9.7C20.6257 10.1 20.1723 10.4067 19.6857 10.62L19.2457 10.04C19.8257 9.82 20.3323 9.46333 20.7657 8.97C21.2057 8.47 21.439 7.94333 21.4657 7.39V7.14H19.5557ZM27.4757 8.6H26.1457V10.46H25.3857V5.96H26.1457V7.96H27.4757V8.6ZM34.978 9.44H32.398V10.49H35.978V11.12H28.088V10.49H31.638V9.44H29.098V6.34H34.978V9.44ZM34.208 8.81V6.97H29.858V8.81H34.208ZM35.458 14.08L35.138 14.68C34.518 14.6 33.898 14.37 33.278 13.99C32.658 13.61 32.238 13.2167 32.018 12.81C31.838 13.21 31.4613 13.5933 30.888 13.96C30.3213 14.32 29.6813 14.5533 28.968 14.66L28.638 14.06C29.438 13.9867 30.138 13.7233 30.738 13.27C31.338 12.8167 31.638 12.3367 31.638 11.83V11.52H32.418V11.83C32.418 12.33 32.7313 12.8133 33.358 13.28C33.9913 13.7467 34.6913 14.0133 35.458 14.08ZM42.5304 11.13C41.797 11.2233 40.8604 11.3033 39.7204 11.37C38.567 11.4167 37.6137 11.44 36.8604 11.44L36.7504 10.78C37.797 10.78 38.6337 10.7733 39.2604 10.76V9.57H37.4304V6.6H41.8804V7.22H38.1904V8.96H41.9304V9.57H40.0304V10.73C41.1504 10.67 41.9604 10.6033 42.4604 10.53L42.5304 11.13ZM44.0804 14.48H38.2004V12.01H38.9604V13.85H44.0804V14.48ZM43.9004 12.56H43.1404V5.96H43.9004V12.56ZM55.9096 10.65H48.0196V10.01H53.8796C54.0396 9.34333 54.1196 8.41333 54.1196 7.22H49.0096V6.59H54.8896C54.8896 8.01 54.7996 9.15 54.6196 10.01H55.9096V10.65ZM55.1396 14.38H49.0196V11.63H49.7796V13.75H55.1396V14.38ZM63.572 9.98H57.642V6.45H63.572V9.98ZM62.812 9.35V7.08H58.412V9.35H62.812ZM60.982 14.71H60.222V11.73H56.672V11.09H64.562V11.73H60.982V14.71Z" fill="#ABABB4"/>
<rect x="0.647059" y="3.64706" width="12.7059" height="12.7059" rx="2.35294" fill="#FF0000" fill-opacity="0.2" stroke="#FF0000" stroke-width="1.29412"/>
<circle cx="15.5" cy="1.5" r="1.5" fill="#FF0000"/>
<path d="M24.9718 30.45L25.0818 31.09C24.5752 31.21 23.8752 31.3067 22.9818 31.38C22.0952 31.4533 21.2952 31.49 20.5818 31.49H20.0518V25.83H20.8118V30.82C22.6185 30.8067 24.0052 30.6833 24.9718 30.45ZM26.4718 24.96V28.43H27.9018V29.08H26.4718V33.7H25.7118V24.96H26.4718ZM36.3042 30.25H28.4142V29.62H36.3042V30.25ZM35.3542 33.43H29.4442V31.03H30.2042V32.8H35.3542V33.43ZM32.0042 28.83H29.2342V25.39H29.9642V26.49H31.2842V25.39H32.0042V28.83ZM31.2842 28.22V27.09H29.9642V28.22H31.2842ZM35.4642 28.83H32.6842V25.39H33.4042V26.49H34.7542V25.39H35.4642V28.83ZM34.7542 28.22V27.09H33.4042V28.22H34.7542ZM47.5835 29.65H39.6935V29.01H45.5535C45.7135 28.3433 45.7935 27.4133 45.7935 26.22H40.6835V25.59H46.5635C46.5635 27.01 46.4735 28.15 46.2935 29.01H47.5835V29.65ZM46.8135 33.38H40.6935V30.63H41.4535V32.75H46.8135V33.38ZM55.2458 28.98H49.3158V25.45H55.2458V28.98ZM54.4858 28.35V26.08H50.0858V28.35H54.4858ZM52.6558 33.71H51.8958V30.73H48.3458V30.09H56.2358V30.73H52.6558V33.71Z" fill="#ABABB4"/>
<rect x="0.647059" y="22.6471" width="12.7059" height="12.7059" rx="2.35294" fill="#F88600" fill-opacity="0.2" stroke="#F88600" stroke-width="1.29412"/>
<circle cx="15.5" cy="20.5" r="1.5" fill="#F88600"/>
</svg>
