<svg width="135" height="40" viewBox="0 0 135 40" fill="none" xmlns="http://www.w3.org/2000/svg">
<g clip-path="url(#clip0_2421_2678)">
<path d="M0.0199998 26.9582L0.14952 12.3312C0.160614 11.0783 1.18526 10.0716 2.43812 10.0827L8.47108 10.1362C11.6962 9.97336 18.1291 11.6171 18.0593 19.4947C17.9896 27.3723 11.525 29.3141 8.30138 29.3002L2.26843 29.2468C1.01556 29.2357 0.00890579 28.2111 0.0199998 26.9582Z" fill="#844AFF"/>
<path d="M6.05455 23.2015C7.75254 23.5974 11.4007 23.3631 12.4094 19.2576" stroke="white" stroke-width="2.83575" stroke-linecap="round"/>
</g>
<g clip-path="url(#clip1_2421_2678)">
<path d="M35.5138 10.4168C37.4561 10.4168 39.1535 10.8105 40.6058 11.5979C42.0757 12.3853 43.2043 13.479 43.9918 14.8789C44.7792 16.2787 45.1729 17.8711 45.1729 19.6559C45.1729 21.4232 44.7792 23.0156 43.9918 24.4329C43.2043 25.8503 42.0757 26.9702 40.6058 27.7926C39.1535 28.5975 37.4561 29 35.5138 29H27.7708V10.4168H35.5138ZM34.9889 23.803C36.3012 23.803 37.3424 23.4443 38.1123 22.7269C38.8822 22.0094 39.2672 20.9858 39.2672 19.6559C39.2672 18.326 38.8822 17.3024 38.1123 16.5849C37.3424 15.8675 36.3012 15.5088 34.9889 15.5088H33.5977V23.803H34.9889Z" fill="#150B3C"/>
<path d="M46.3128 16.8868C46.262 27.1101 59.0582 29.987 60.4464 16.8162" stroke="#844AFF" stroke-width="6.56187" stroke-linecap="round"/>
<path d="M71.7027 24.0392V29H69.4979C65.4383 29 63.4085 26.9789 63.4085 22.9368V19.0522H61.5711V14.1964H63.4085V10.6268H69.2354V14.1964H71.6502V19.0522H69.2354V23.0418C69.2354 23.3918 69.3141 23.6455 69.4716 23.803C69.6466 23.9605 69.9266 24.0392 70.3116 24.0392H71.7027ZM90.6415 14.1964L81.1661 36.0868H74.788L78.5151 28.2651L72.347 14.1964H78.8301L81.6123 21.7032L84.2108 14.1964H90.6415ZM94.6247 13.0153C93.6098 13.0153 92.7961 12.7441 92.1837 12.2016C91.5713 11.6592 91.265 10.9767 91.265 10.1543C91.265 9.31439 91.5713 8.62321 92.1837 8.08076C92.7961 7.52081 93.6098 7.24084 94.6247 7.24084C95.6221 7.24084 96.427 7.52081 97.0395 8.08076C97.6519 8.62321 97.9581 9.31439 97.9581 10.1543C97.9581 10.9767 97.6519 11.6592 97.0395 12.2016C96.427 12.7441 95.6221 13.0153 94.6247 13.0153ZM97.5119 14.1964V29H91.685V14.1964H97.5119ZM110.511 14.0914C112.209 14.0914 113.53 14.6601 114.475 15.7975C115.437 16.9349 115.918 18.4748 115.918 20.4171V29H110.118V21.152C110.118 20.4521 109.925 19.9009 109.54 19.4984C109.173 19.0785 108.674 18.8685 108.044 18.8685C107.397 18.8685 106.889 19.0785 106.522 19.4984C106.154 19.9009 105.971 20.4521 105.971 21.152V29H100.144V14.1964H105.971V16.4537C106.426 15.7538 107.029 15.1851 107.782 14.7476C108.552 14.3102 109.462 14.0914 110.511 14.0914ZM123.773 14.0127C124.736 14.0127 125.567 14.2139 126.267 14.6164C126.967 15.0013 127.5 15.535 127.868 16.2175V14.1964H133.669V28.7375C133.669 30.1199 133.415 31.3798 132.907 32.5172C132.4 33.6546 131.578 34.5645 130.44 35.2469C129.32 35.9293 127.877 36.2706 126.109 36.2706C123.73 36.2706 121.84 35.7106 120.44 34.5907C119.058 33.4883 118.27 31.9835 118.078 30.0761H123.8C123.957 30.8461 124.587 31.231 125.689 31.231C126.372 31.231 126.906 31.0561 127.291 30.7061C127.675 30.3561 127.868 29.6999 127.868 28.7375V26.9789C127.5 27.6614 126.967 28.2038 126.267 28.6063C125.567 28.9913 124.736 29.1837 123.773 29.1837C122.618 29.1837 121.577 28.8863 120.65 28.2913C119.722 27.6789 118.988 26.804 118.445 25.6666C117.92 24.5117 117.658 23.1556 117.658 21.5982C117.658 20.0409 117.92 18.6935 118.445 17.5561C118.988 16.4012 119.722 15.5263 120.65 14.9314C121.577 14.3189 122.618 14.0127 123.773 14.0127ZM127.868 21.5982C127.868 20.8108 127.667 20.1983 127.264 19.7609C126.862 19.3234 126.346 19.1047 125.716 19.1047C125.086 19.1047 124.57 19.3234 124.167 19.7609C123.765 20.1983 123.563 20.8108 123.563 21.5982C123.563 22.3856 123.765 22.9981 124.167 23.4355C124.57 23.873 125.086 24.0917 125.716 24.0917C126.346 24.0917 126.862 23.873 127.264 23.4355C127.667 22.9981 127.868 22.3856 127.868 21.5982Z" fill="#150B3C"/>
</g>
<defs>
<clipPath id="clip0_2421_2678">
<rect width="18.1417" height="19.2755" fill="white" transform="translate(0 10.0479)"/>
</clipPath>
<clipPath id="clip1_2421_2678">
<rect width="108.542" height="39.3712" fill="white" transform="translate(26.4584)"/>
</clipPath>
</defs>
</svg>
