<svg width="30" height="30" viewBox="0 0 30 30" fill="none" xmlns="http://www.w3.org/2000/svg">
<g id="icon) more">
<path id="Vector" d="M5 15.0002C5 15.3317 5.1317 15.6496 5.36612 15.8841C5.60054 16.1185 5.91848 16.2502 6.25 16.2502C6.58152 16.2502 6.89946 16.1185 7.13388 15.8841C7.3683 15.6496 7.5 15.3317 7.5 15.0002C7.5 14.6687 7.3683 14.3507 7.13388 14.1163C6.89946 13.8819 6.58152 13.7502 6.25 13.7502C5.91848 13.7502 5.60054 13.8819 5.36612 14.1163C5.1317 14.3507 5 14.6687 5 15.0002Z" fill="white" stroke="white" stroke-linecap="round" stroke-linejoin="round"/>
<path id="Vector_2" d="M13.75 15.0002C13.75 15.3317 13.8817 15.6496 14.1161 15.8841C14.3505 16.1185 14.6685 16.2502 15 16.2502C15.3315 16.2502 15.6495 16.1185 15.8839 15.8841C16.1183 15.6496 16.25 15.3317 16.25 15.0002C16.25 14.6687 16.1183 14.3507 15.8839 14.1163C15.6495 13.8819 15.3315 13.7502 15 13.7502C14.6685 13.7502 14.3505 13.8819 14.1161 14.1163C13.8817 14.3507 13.75 14.6687 13.75 15.0002Z" fill="white" stroke="white" stroke-linecap="round" stroke-linejoin="round"/>
<path id="Vector_3" d="M22.5 15.0002C22.5 15.3317 22.6317 15.6496 22.8661 15.8841C23.1005 16.1185 23.4185 16.2502 23.75 16.2502C24.0815 16.2502 24.3995 16.1185 24.6339 15.8841C24.8683 15.6496 25 15.3317 25 15.0002C25 14.6687 24.8683 14.3507 24.6339 14.1163C24.3995 13.8819 24.0815 13.7502 23.75 13.7502C23.4185 13.7502 23.1005 13.8819 22.8661 14.1163C22.6317 14.3507 22.5 14.6687 22.5 15.0002Z" fill="white" stroke="white" stroke-linecap="round" stroke-linejoin="round"/>
</g>
</svg>
