<svg width="16" height="16" viewBox="0 0 16 16" fill="none" xmlns="http://www.w3.org/2000/svg">
<g id="icon)person" clip-path="url(#clip0_1802_25172)">
<path id="Vector" d="M5.33398 4.66667C5.33398 5.37391 5.61494 6.05219 6.11503 6.55229C6.61513 7.05238 7.29341 7.33333 8.00065 7.33333C8.7079 7.33333 9.38617 7.05238 9.88627 6.55229C10.3864 6.05219 10.6673 5.37391 10.6673 4.66667C10.6673 3.95942 10.3864 3.28115 9.88627 2.78105C9.38617 2.28095 8.7079 2 8.00065 2C7.29341 2 6.61513 2.28095 6.11503 2.78105C5.61494 3.28115 5.33398 3.95942 5.33398 4.66667Z" fill="white"/>
<path id="Vector_2" d="M3 14V12.3333C3 11.4493 3.35119 10.6014 3.97631 9.97631C4.60143 9.35119 5.44928 9 6.33333 9H9.66667C10.5507 9 11.3986 9.35119 12.0237 9.97631C12.6488 10.6014 13 11.4493 13 12.3333V14" fill="white"/>
</g>
<defs>
<clipPath id="clip0_1802_25172">
<rect width="16" height="16" fill="white"/>
</clipPath>
</defs>
</svg>
