<svg width="17" height="19" viewBox="0 0 17 19" fill="none" xmlns="http://www.w3.org/2000/svg">
<g id="Group 774">
<path id="Polygon 1" d="M15.607 8.70464C16.216 9.04428 16.2167 9.92011 15.6083 10.2608L1.32674 18.2571C0.732618 18.5898 -7.83497e-07 18.1604 -7.5412e-07 17.4794L3.74922e-06 1.51767C3.77857e-06 0.837411 0.731354 0.407902 1.32546 0.739256L15.607 8.70464Z" fill="#595961"/>
<g id="Mask group">
<mask id="mask0_2422_3242" style="mask-type:alpha" maskUnits="userSpaceOnUse" x="0" y="0" width="17" height="19">
<path id="Polygon 2" d="M15.607 8.70464C16.216 9.04428 16.2167 9.92011 15.6083 10.2608L1.32674 18.2571C0.732618 18.5898 -7.83497e-07 18.1604 -7.5412e-07 17.4794L3.74922e-06 1.51767C3.77857e-06 0.837411 0.731354 0.407902 1.32546 0.739256L15.607 8.70464Z" fill="#EDE4FF"/>
</mask>
<g mask="url(#mask0_2422_3242)">
<g id="Group 772">
<path id="Intersect" fill-rule="evenodd" clip-rule="evenodd" d="M0 18.9999V0.0703125L0.233134 0.199466L9.39461 9.48159L0 18.9999Z" fill="#595961"/>
<g id="Exclude">
<mask id="path-4-outside-1_2422_3242" maskUnits="userSpaceOnUse" x="-1" y="-2.03711" width="15" height="23" fill="black">
<rect fill="white" x="-1" y="-2.03711" width="15" height="23"/>
<path fill-rule="evenodd" clip-rule="evenodd" d="M9.39465 9.48125L12.0789 12.2009L0 18.9998V18.9996L9.39465 9.48125ZM0.233304 0.199267L12.0789 6.7616L9.39465 9.48125L0.233304 0.199267ZM0 0.0700195L0.233304 0.199267L0 -0.0371094V0.0700195Z"/>
</mask>
<path fill-rule="evenodd" clip-rule="evenodd" d="M9.39465 9.48125L12.0789 12.2009L0 18.9998V18.9996L9.39465 9.48125ZM0.233304 0.199267L12.0789 6.7616L9.39465 9.48125L0.233304 0.199267ZM0 0.0700195L0.233304 0.199267L0 -0.0371094V0.0700195Z" fill="#595961"/>
<path d="M12.0789 12.2009L12.4223 12.8109L13.2209 12.3614L12.5771 11.7092L12.0789 12.2009ZM0 18.9998H-0.7V20.1971L0.343355 19.6098L0 18.9998ZM0 18.9996L-0.498202 18.5079L-0.7 18.7124V18.9996H0ZM12.0789 6.7616L12.5772 7.25333L13.2254 6.5965L12.4182 6.14929L12.0789 6.7616ZM0 0.0700195H-0.7V0.482467L-0.339216 0.682337L0 0.0700195ZM0 -0.0371094L0.498202 -0.528836L-0.7 -1.74282V-0.0371094H0ZM12.5771 11.7092L9.89285 8.98953L8.89645 9.97298L11.5807 12.6926L12.5771 11.7092ZM0.343355 19.6098L12.4223 12.8109L11.7356 11.5909L-0.343355 18.3898L0.343355 19.6098ZM-0.7 18.9996V18.9998H0.7V18.9996H-0.7ZM0.498202 19.4914L9.89285 9.97298L8.89645 8.98953L-0.498202 18.5079L0.498202 19.4914ZM12.4182 6.14929L0.57252 -0.41305L-0.105912 0.811584L11.7397 7.37392L12.4182 6.14929ZM9.89285 9.97298L12.5772 7.25333L11.5807 6.26988L8.89645 8.98953L9.89285 9.97298ZM9.89285 8.98953L0.731506 -0.292459L-0.264898 0.690994L8.89645 9.97298L9.89285 8.98953ZM0.57252 -0.41305L0.339216 -0.542298L-0.339216 0.682337L-0.105912 0.811584L0.57252 -0.41305ZM0.731506 -0.292459L0.498202 -0.528836L-0.498202 0.454617L-0.264898 0.690994L0.731506 -0.292459ZM-0.7 -0.0371094V0.0700195H0.7V-0.0371094H-0.7Z" fill="#F2F2F7" mask="url(#path-4-outside-1_2422_3242)"/>
</g>
</g>
</g>
</g>
</g>
</svg>
