<svg width="20" height="20" viewBox="0 0 20 20" fill="none" xmlns="http://www.w3.org/2000/svg">
<circle cx="10" cy="10" r="9" fill="white" stroke="#93939D" stroke-width="1.5"/>
<path fill-rule="evenodd" clip-rule="evenodd" d="M10.75 5.71387C10.75 5.29965 10.4142 4.96387 10 4.96387C9.58579 4.96387 9.25 5.29965 9.25 5.71387V9.25H5.71484C5.30063 9.25 4.96484 9.58579 4.96484 10C4.96484 10.4142 5.30063 10.75 5.71484 10.75H9.25V14.2853C9.25 14.6995 9.58579 15.0353 10 15.0353C10.4142 15.0353 10.75 14.6995 10.75 14.2853V10.75H14.2863C14.7005 10.75 15.0363 10.4142 15.0363 10C15.0363 9.58579 14.7005 9.25 14.2863 9.25H10.75V5.71387Z" fill="#93939D"/>
</svg>
