<svg width="46" height="45" viewBox="0 0 46 45" fill="none" xmlns="http://www.w3.org/2000/svg">
<g clip-path="url(#clip0_229_1115)">
<path d="M38.4082 38C34.4298 30.9568 29.0342 27 23.4082 27C17.7822 27 12.3866 30.9568 8.4082 38" fill="#844AFF"/>
<path d="M38.4082 38C34.4298 30.9568 29.0342 27 23.4082 27C17.7822 27 12.3866 30.9568 8.4082 38H38.4082Z" stroke="#844AFF" stroke-width="3" stroke-linecap="round" stroke-linejoin="round"/>
<path d="M34.2503 7.1325C31.6664 5.64072 28.5958 5.23646 25.7138 6.00863C22.8319 6.78081 20.3747 8.66617 18.8828 11.25L38.3678 22.5C39.8596 19.9161 40.2639 16.8455 39.4917 13.9635C38.7195 11.0816 36.8341 8.62439 34.2503 7.1325Z" stroke="#844AFF" stroke-width="3" stroke-linecap="round" stroke-linejoin="round"/>
<path d="M31.8729 18.75C34.9817 13.3687 36.0448 8.16749 34.2504 7.13249C32.4561 6.09749 28.4848 9.61874 25.3779 15" fill="#844AFF"/>
<path d="M31.8729 18.75C34.9817 13.3687 36.0448 8.16749 34.2504 7.13249C32.4561 6.09749 28.4848 9.61874 25.3779 15" stroke="#844AFF" stroke-width="3" stroke-linecap="round" stroke-linejoin="round"/>
<path d="M28.625 16.875L23 26.6175" stroke="#844AFF" stroke-width="3" stroke-linecap="round" stroke-linejoin="round"/>
</g>
<defs>
<clipPath id="clip0_229_1115">
<rect width="45" height="45" fill="white" transform="translate(0.5)"/>
</clipPath>
</defs>
</svg>
