<svg width="46" height="46" viewBox="0 0 46 46" fill="none" xmlns="http://www.w3.org/2000/svg">
  <g clip-path="url(#clip0_48_82)">
    <path
      d="M33.4116 31.8826C30.7745 29.2457 27.1978 27.7643 23.4685 27.7643C19.7392 27.7643 16.1626 29.2457 13.5254 31.8826"
      stroke="#ABABB4" stroke-width="3" stroke-linecap="round" stroke-linejoin="round" />
    <path
      d="M34.2498 7.60881C31.6659 6.11704 28.5953 5.71277 25.7133 6.48495C22.8314 7.25713 20.3742 9.14249 18.8823 11.7263L38.3673 22.9763C39.8591 20.3924 40.2634 17.3218 39.4912 14.4398C38.719 11.5579 36.8336 9.1007 34.2498 7.60881Z"
      stroke="#ABABB4" stroke-width="3" stroke-linecap="round" stroke-linejoin="round" />
    <path
      d="M31.8724 19.2263C34.9812 13.8451 36.0443 8.64381 34.2499 7.60881C32.4556 6.57381 28.4843 10.0951 25.3774 15.4763"
      stroke="#ABABB4" stroke-width="3" stroke-linecap="round" stroke-linejoin="round" />
    <path d="M28.625 17.3513L23 27.0938" stroke="#ABABB4" stroke-width="3" stroke-linecap="round"
      stroke-linejoin="round" />
    <path
      d="M6.125 36.5701C6.70867 36.2799 7.34843 36.1199 8 36.1013C8.73031 36.086 9.45336 36.2487 10.1067 36.5754C10.7601 36.9021 11.3241 37.3829 11.75 37.9763C12.1759 38.5698 12.7399 39.0506 13.3933 39.3772C14.0466 39.7039 14.7697 39.8666 15.5 39.8513C16.2303 39.8666 16.9534 39.7039 17.6067 39.3772C18.2601 39.0506 18.8241 38.5698 19.25 37.9763C19.6759 37.3829 20.2399 36.9021 20.8933 36.5754C21.5466 36.2487 22.2697 36.086 23 36.1013C23.7303 36.086 24.4534 36.2487 25.1067 36.5754C25.7601 36.9021 26.3241 37.3829 26.75 37.9763C27.1759 38.5698 27.7399 39.0506 28.3933 39.3772C29.0466 39.7039 29.7697 39.8666 30.5 39.8513C31.2303 39.8666 31.9534 39.7039 32.6067 39.3772C33.2601 39.0506 33.8241 38.5698 34.25 37.9763C34.6759 37.3829 35.2399 36.9021 35.8933 36.5754C36.5466 36.2487 37.2697 36.086 38 36.1013C38.6516 36.1199 39.2913 36.2799 39.875 36.5701"
      stroke="#ABABB4" stroke-width="3" stroke-linecap="round" stroke-linejoin="round" />
  </g>
  <defs>
    <clipPath id="clip0_48_82">
      <rect width="45" height="45" fill="white" transform="translate(0.5 0.476318)" />
    </clipPath>
  </defs>
</svg>