<svg width="43" height="43" viewBox="0 0 43 43" fill="none" xmlns="http://www.w3.org/2000/svg">
<g clip-path="url(#clip0_229_837)">
<path d="M35.6094 11.2338C36.2251 11.584 36.7365 12.0919 37.0907 12.7054C37.445 13.3188 37.6294 14.0156 37.625 14.7239V27.7744C37.625 29.2239 36.8313 30.5605 35.5502 31.2646L23.4565 38.915C22.8569 39.2442 22.184 39.4168 21.5 39.4168C20.816 39.4168 20.1431 39.2442 19.5435 38.915L7.44975 31.2646C6.82296 30.9221 6.29972 30.4174 5.93474 29.8034C5.56975 29.1895 5.37644 28.4887 5.375 27.7744V14.7221C5.375 13.2727 6.16871 11.9379 7.44975 11.2338L19.5435 4.10292C20.1608 3.76257 20.8542 3.58408 21.5591 3.58408C22.264 3.58408 22.9575 3.76257 23.5748 4.10292L35.6685 11.2338H35.6094Z" fill="#844AFF" stroke="#844AFF" stroke-width="3" stroke-linecap="round" stroke-linejoin="round"/>
<path d="M14.625 21.5C14.625 23.3234 15.3493 25.072 16.6386 26.3614C17.928 27.6507 19.6766 28.375 21.5 28.375C23.3234 28.375 25.072 27.6507 26.3614 26.3614C27.6507 25.072 28.375 23.3234 28.375 21.5C28.375 19.6766 27.6507 17.928 26.3614 16.6386C25.072 15.3493 23.3234 14.625 21.5 14.625C19.6766 14.625 17.928 15.3493 16.6386 16.6386C15.3493 17.928 14.625 19.6766 14.625 21.5Z" fill="white" stroke="#844AFF" stroke-width="3" stroke-linecap="round" stroke-linejoin="round"/>
</g>
<defs>
<clipPath id="clip0_229_837">
<rect width="43" height="43" fill="white"/>
</clipPath>
</defs>
</svg>
