<svg width="44" height="44" viewBox="0 0 44 44" fill="none" xmlns="http://www.w3.org/2000/svg">
  <g clip-path="url(#clip0_48_101)">
    <path
      d="M36.1094 11.7101C36.7251 12.0603 37.2365 12.5682 37.5907 13.1817C37.945 13.7951 38.1294 14.4919 38.125 15.2002V28.2507C38.125 29.7002 37.3313 31.0368 36.0502 31.7409L23.9565 39.3913C23.3569 39.7205 22.684 39.8931 22 39.8931C21.316 39.8931 20.6431 39.7205 20.0435 39.3913L7.94975 31.7409C7.32296 31.3984 6.79972 30.8937 6.43474 30.2798C6.06975 29.6658 5.87644 28.965 5.875 28.2507V15.1984C5.875 13.749 6.66871 12.4142 7.94975 11.7101L20.0435 4.57923C20.6608 4.23888 21.3542 4.06039 22.0591 4.06039C22.764 4.06039 23.4575 4.23888 24.0748 4.57923L36.1685 11.7101H36.1094Z"
      stroke="#ABABB4" stroke-width="3" stroke-linecap="round" stroke-linejoin="round" />
    <path
      d="M16.625 21.9763C16.625 23.4019 17.1913 24.769 18.1993 25.777C19.2073 26.785 20.5745 27.3513 22 27.3513C23.4255 27.3513 24.7927 26.785 25.8007 25.777C26.8087 24.769 27.375 23.4019 27.375 21.9763C27.375 20.5508 26.8087 19.1836 25.8007 18.1756C24.7927 17.1676 23.4255 16.6013 22 16.6013C20.5745 16.6013 19.2073 17.1676 18.1993 18.1756C17.1913 19.1836 16.625 20.5508 16.625 21.9763Z"
      stroke="#ABABB4" stroke-width="3" stroke-linecap="round" stroke-linejoin="round" />
  </g>
  <defs>
    <clipPath id="clip0_48_101">
      <rect width="43" height="43" fill="white" transform="translate(0.5 0.476318)" />
    </clipPath>
  </defs>
</svg>