<svg width="24" height="24" viewBox="0 0 24 24" fill="none" xmlns="http://www.w3.org/2000/svg">
<g id="&#234;&#179;&#181;&#236;&#156;&#160;">
<path id="Vector" d="M7.99982 9H6.99982C6.46938 9 5.96068 9.21071 5.5856 9.58579C5.21053 9.96086 4.99982 10.4696 4.99982 11V19C4.99982 19.5304 5.21053 20.0391 5.5856 20.4142C5.96068 20.7893 6.46938 21 6.99982 21H16.9998C17.5302 21 18.039 20.7893 18.414 20.4142C18.7891 20.0391 18.9998 19.5304 18.9998 19V11C18.9998 10.4696 18.7891 9.96086 18.414 9.58579C18.039 9.21071 17.5302 9 16.9998 9H15.9998" stroke="white" stroke-width="1.5" stroke-linecap="round" stroke-linejoin="round"/>
<path id="Vector_2" d="M12 14V3" stroke="white" stroke-width="1.5" stroke-linecap="round" stroke-linejoin="round"/>
<path id="Vector_3" d="M9 6L12 3L15 6" stroke="white" stroke-width="1.5" stroke-linecap="round" stroke-linejoin="round"/>
</g>
</svg>
