<svg width="30" height="30" viewBox="0 0 30 30" fill="none" xmlns="http://www.w3.org/2000/svg">
  <g id="Group 511">
    <path id="Vector" d="M0 0H30V30H0V0Z" fill="white" />
    <path id="Vector_2"
      d="M10 6.25C10 6.58152 10.1317 6.89946 10.3661 7.13388C10.6005 7.3683 10.9185 7.5 11.25 7.5C11.5815 7.5 11.8995 7.3683 12.1339 7.13388C12.3683 6.89946 12.5 6.58152 12.5 6.25C12.5 5.91848 12.3683 5.60054 12.1339 5.36612C11.8995 5.1317 11.5815 5 11.25 5C10.9185 5 10.6005 5.1317 10.3661 5.36612C10.1317 5.60054 10 5.91848 10 6.25Z"
      fill="#93939D" stroke="#93939D" stroke-width="2" stroke-linecap="round"
      stroke-linejoin="round" />
    <path id="Vector_3"
      d="M10 15C10 15.3315 10.1317 15.6495 10.3661 15.8839C10.6005 16.1183 10.9185 16.25 11.25 16.25C11.5815 16.25 11.8995 16.1183 12.1339 15.8839C12.3683 15.6495 12.5 15.3315 12.5 15C12.5 14.6685 12.3683 14.3505 12.1339 14.1161C11.8995 13.8817 11.5815 13.75 11.25 13.75C10.9185 13.75 10.6005 13.8817 10.3661 14.1161C10.1317 14.3505 10 14.6685 10 15Z"
      fill="#93939D" stroke="#93939D" stroke-width="2" stroke-linecap="round"
      stroke-linejoin="round" />
    <path id="Vector_4"
      d="M10 23.75C10 24.0815 10.1317 24.3995 10.3661 24.6339C10.6005 24.8683 10.9185 25 11.25 25C11.5815 25 11.8995 24.8683 12.1339 24.6339C12.3683 24.3995 12.5 24.0815 12.5 23.75C12.5 23.4185 12.3683 23.1005 12.1339 22.8661C11.8995 22.6317 11.5815 22.5 11.25 22.5C10.9185 22.5 10.6005 22.6317 10.3661 22.8661C10.1317 23.1005 10 23.4185 10 23.75Z"
      fill="#93939D" stroke="#93939D" stroke-width="2" stroke-linecap="round"
      stroke-linejoin="round" />
    <path id="Vector_5"
      d="M17.5 6.25C17.5 6.58152 17.6317 6.89946 17.8661 7.13388C18.1005 7.3683 18.4185 7.5 18.75 7.5C19.0815 7.5 19.3995 7.3683 19.6339 7.13388C19.8683 6.89946 20 6.58152 20 6.25C20 5.91848 19.8683 5.60054 19.6339 5.36612C19.3995 5.1317 19.0815 5 18.75 5C18.4185 5 18.1005 5.1317 17.8661 5.36612C17.6317 5.60054 17.5 5.91848 17.5 6.25Z"
      fill="#93939D" stroke="#93939D" stroke-width="2" stroke-linecap="round"
      stroke-linejoin="round" />
    <path id="Vector_6"
      d="M17.5 15C17.5 15.3315 17.6317 15.6495 17.8661 15.8839C18.1005 16.1183 18.4185 16.25 18.75 16.25C19.0815 16.25 19.3995 16.1183 19.6339 15.8839C19.8683 15.6495 20 15.3315 20 15C20 14.6685 19.8683 14.3505 19.6339 14.1161C19.3995 13.8817 19.0815 13.75 18.75 13.75C18.4185 13.75 18.1005 13.8817 17.8661 14.1161C17.6317 14.3505 17.5 14.6685 17.5 15Z"
      fill="#93939D" stroke="#93939D" stroke-width="2" stroke-linecap="round"
      stroke-linejoin="round" />
    <path id="Vector_7"
      d="M17.5 23.75C17.5 24.0815 17.6317 24.3995 17.8661 24.6339C18.1005 24.8683 18.4185 25 18.75 25C19.0815 25 19.3995 24.8683 19.6339 24.6339C19.8683 24.3995 20 24.0815 20 23.75C20 23.4185 19.8683 23.1005 19.6339 22.8661C19.3995 22.6317 19.0815 22.5 18.75 22.5C18.4185 22.5 18.1005 22.6317 17.8661 22.8661C17.6317 23.1005 17.5 23.4185 17.5 23.75Z"
      fill="#93939D" stroke="#93939D" stroke-width="2" stroke-linecap="round"
      stroke-linejoin="round" />
  </g>
</svg>